<?xml version="1.0" encoding="UTF-8"?><svg id="Layer_1" xmlns="http://www.w3.org/2000/svg" viewBox="0 0 939.15 939.1"><defs><style>.cls-1{fill:#fff;stroke-width:0px;}</style></defs><g id="zpmFci.tif"><path class="cls-1" d="m800.67,939.1c-13.38,0-26.8-6.53-39.87-19.6l-161.58-161.57-58.75,101.76c-1.61,2.81-3.23,5.63-4.92,8.41-10.66,17.57-27.41,26.22-46.99,24.39-19.18-1.8-33.81-12.96-41.18-31.42L217.72,285.22c-.62-1.48-1.23-2.95-1.81-4.44-8.16-21.02-4.42-40.63,10.55-55.24,14.63-14.29,33.92-17.69,54.33-9.56,40.21,16.01,80.41,32.05,120.6,48.1l455.82,181.81c15.93,6.36,27.57,17.21,32.78,30.56,4.49,11.5,3.88,24.28-1.72,35.98-4.57,9.54-12.96,18.44-23.01,24.41-28.85,17.16-58.38,34.18-86.93,50.64l-20.47,11.82,162.15,162.22c25.59,25.63,25.54,52.78-.16,78.51-26.6,26.63-53.21,53.25-79.84,79.85-12.83,12.82-26.06,19.23-39.32,19.23Zm-209.85-240.53l20.29,19.24c2.14,2.01,3.96,3.72,5.73,5.49l170.09,170.07c11.74,11.73,15.51,11.77,26.95.36,26.62-26.59,53.23-53.2,79.82-79.82,11.23-11.25,11.25-15.18.16-26.28l-170.73-170.8c-1.82-1.82-3.58-3.7-5.53-5.81l-17.94-19.1,21.77-13.94c2.26-1.48,4.29-2.8,6.39-4.01l32.05-18.5c28.45-16.4,57.87-33.35,86.5-50.39,3.66-2.17,7.18-5.72,8.57-8.62,1.58-3.29,1.11-5.33.63-6.58-1.41-3.61-5.92-7.23-12.06-9.68l-455.82-181.81c-40.19-16.04-80.37-32.08-120.57-48.09-8.61-3.43-12.06-1.05-14.85,1.68-3.02,2.95-5.44,6.34-1.91,15.4.47,1.2.97,2.4,1.47,3.6l1.44,3.5,228.44,572.88c2.54,6.34,5.95,7.92,10.3,8.33,4.6.41,8.19-.55,11.96-6.77,1.53-2.53,3-5.09,4.47-7.64l82.4-142.73Z"/><path class="cls-1" d="m334.29,78.21c0,16,.17,32.01-.04,48-.23,17.75-12.98,30.91-29.77,31.15-17.13.25-30.53-13.15-30.64-31.31-.2-31.68-.21-63.35,0-95.03.12-17.88,12.84-30.79,29.82-31.01,17.46-.23,30.36,12.76,30.59,31.18.2,15.67.04,31.35.04,47.02Z"/><path class="cls-1" d="m78.1,273.83c15.67,0,31.35-.12,47.02.03,18.92.18,32.47,13.25,32.17,30.76-.29,17.16-13.64,29.64-32.19,29.71-31.02.12-62.05.12-93.07,0-18.75-.07-31.76-12.31-32.03-29.72-.28-17.79,12.94-30.57,32.05-30.75,15.35-.14,30.7-.03,46.04-.03Z"/><path class="cls-1" d="m422.13,198.83c-13.47-1.66-23.02-7.22-28.3-18.67-5.19-11.26-4.76-23.04,3.99-32.12,23.61-24.5,47.6-48.65,72.13-72.22,11.65-11.2,29.58-9.81,40.84,1.4,11.32,11.27,12.33,29.94.96,41.68-23.22,23.97-46.83,47.58-70.91,70.68-4.79,4.59-12.4,6.25-18.7,9.26Z"/><path class="cls-1" d="m114.02,80.72c6.94,3.76,15.1,6.25,20.61,11.51,22.94,21.92,45.25,44.51,67.47,67.18,12.57,12.82,12.56,31.13.72,43.14-11.86,12.04-30.38,12.34-43.1-.12-22.91-22.43-45.48-45.21-68.06-67.98-9.52-9.6-11.34-21.15-6.52-33.49,4.52-11.57,15.14-18.18,28.88-20.24Z"/><path class="cls-1" d="m199.15,422.4c-3.56,6.71-5.84,14.63-10.89,19.91-22.16,23.17-44.97,45.72-67.86,68.18-12.62,12.38-31.3,12.25-43.16.42-12.01-11.98-12.2-30.24.39-43.11,22.43-22.92,45.2-45.5,68.01-68.04,9.61-9.49,21.23-11.18,33.55-6.33,11.43,4.5,18.02,15.27,19.97,28.96Z"/></g></svg>