<?xml version="1.0" encoding="UTF-8"?><svg id="Layer_1" xmlns="http://www.w3.org/2000/svg" viewBox="0 0 839.84 841.61"><defs><style>.cls-1{fill:#89edec;stroke-width:0px;}</style></defs><path class="cls-1" d="M821.87,394.98c-.33,77.58-13.34,136.63-39.17,192.9-1.84,4.01-2.06,9.91-.64,14.12,17.61,52.17,35.86,104.13,53.54,156.28,13.7,40.39-6.79,77.17-47.29,82.9-11.27,1.59-23.96-1.4-35.08-5.08-51.84-17.14-103.33-35.35-155.07-52.79-3.49-1.18-8.49-.24-12.02,1.39-66.98,30.96-137.31,44.21-210.66,37.59-105.72-9.54-194.99-54.05-267.25-131.97-56.13-60.52-92.27-131.96-103.43-213.6C-16.58,320.36,33.37,189.74,155.42,89.28,229.93,27.95,317.37-2.44,413.6.15c165.64,4.47,287.64,82.56,365.05,229.02,30.41,57.53,42.6,116.48,43.22,165.81ZM50.21,410.35c0,10.6-.9,21.29.14,31.78,8.36,84.26,40.7,157.78,99.54,218.93,69,71.71,153.34,109.8,252.79,112.74,59.3,1.75,115.78-11.08,168.79-37.99,11.8-5.99,22.85-7.12,35.51-2.66,54.23,19.12,108.62,37.8,163.11,56.14,5.14,1.73,13.68,2.24,16.58-.7,2.92-2.97,2.36-11.47.63-16.65-18.42-54.97-37.11-109.85-56.37-164.52-4.26-12.09-2.93-22.46,2.55-33.52,35.45-71.6,46.85-146.73,32.62-225.64-16.13-89.41-59.94-162.82-130.66-218.68-103.78-81.96-220.4-101.71-345.01-59.19C149.7,118.41,49.29,253.81,50.21,410.35Z"/><path class="cls-1" d="M431.03,456.62c0,26.75.17,53.06-.08,79.37-.11,11.49-7.67,20.73-17.98,23.29-10.59,2.63-22.7-1.66-27.3-11.22-2.56-5.32-3.32-11.93-3.39-17.97-.32-30.35-.21-60.71-.13-91.07.06-21.5,7.72-29.49,29.27-31.11,25.86-1.94,45.74-14.04,58.75-36.41,15.63-26.89,14.5-54.11-2.91-79.45-18.08-26.31-44.64-36.83-75.42-30.54-30.27,6.19-49.85,26.02-57.38,56.61-1.3,5.28-1.64,10.82-2.16,16.26-1.4,14.83-11.94,25.02-25.61,24.55-13.69-.47-23.77-11.49-23.98-26.21-.77-55.55,42.6-109.09,97.09-119.86,60.82-12.02,120.29,19.31,141.54,74.57,26.77,69.62-8.57,143.33-79.5,165.82-3.43,1.09-6.87,2.14-10.83,3.37Z"/><path class="cls-1" d="M431.01,622c.13,13.21-10.8,24.55-24.01,24.91-13.25.36-24.56-11.28-24.68-25.42-.12-13.3,10.7-24.49,23.96-24.78,13.46-.29,24.59,11.1,24.73,25.29Z"/></svg>