<?xml version="1.0" encoding="UTF-8"?><svg id="Layer_1" xmlns="http://www.w3.org/2000/svg" viewBox="0 0 971.23 971.37"><defs><style>.cls-1{fill:#fff;stroke:#fff;stroke-miterlimit:10;}</style></defs><path class="cls-1" d="m.5,484.88C.9,216.94,217.89.46,486,.5c269.23.04,485.5,217.71,484.73,487.87-.76,268.25-217.35,482.96-486.7,482.5C215.98,970.41.1,753.43.5,484.88ZM487.69,30.83C237.41,29.88,31.79,232.49,30.78,481.06c-1.04,254.32,200.73,459.25,453.06,460.16,251.35.91,456.22-202.29,457.09-453.36.88-251.56-201.93-456.06-453.24-457.02Z"/><path class="cls-1" d="m702.12,276.05c-63.4,162.42-126.79,324.83-193.22,495.03-6.66-14.72-10.72-21.86-13.22-29.52-18.47-56.63-37.66-113.06-54.36-170.21-6.47-22.13-17.41-34-39.76-40.56-56.2-16.48-111.68-35.45-167.39-53.6-8.81-2.87-17.31-6.71-26.54-17.04,162.77-63.55,325.54-127.1,488.32-190.65,2.06,2.18,4.13,4.37,6.19,6.55Z"/></svg>