<?xml version="1.0" encoding="UTF-8"?><svg id="Layer_1" xmlns="http://www.w3.org/2000/svg" viewBox="0 0 851.28 929.48"><defs><style>.cls-1{fill:#89edec;stroke-width:0px;}</style></defs><g id="HmwZ0E.tif"><path class="cls-1" d="m0,856.68C0,576.82,0,296.97,0,17.11,2.54,8.24,8.29,2.58,17.11,0h701.46c14.29,5.83,17,9.93,17,25.78,0,259.87,0,519.74,0,779.6v7.91c3.03,0,5.11,0,7.18,0,29.46,0,58.92-.04,88.39.03,11.07.03,19.69,6.51,19.93,16.97.32,13.58.69,27.65-2.31,40.74-8.14,35.6-39.33,58.44-77.2,58.44-230.38.02-460.75,0-691.13,0-1.33,0-2.66,0-3.99-.03-35.18-.97-64.91-24.47-73.59-58.3-1.22-4.75-1.92-9.64-2.85-14.47ZM696.6,39.47H39.01v8.25c0,266.14,0,532.27,0,798.41,0,2.28-.05,4.57.07,6.84,1.34,24.7,22.73,41.55,46.7,36.82,16.9-3.34,29.97-18.59,30.55-35.85.2-6.08.07-12.16.09-18.25.04-14.96,7.45-22.4,22.45-22.4,183.42,0,366.85,0,550.27,0h7.46V39.47ZM146.68,890.76h5.61c205.67,0,411.35,0,617.02,0,2.09,0,4.19.05,6.27-.07,21-1.13,37.36-18.01,36.86-38.24H156.91c-3.5,13.12-6.8,25.47-10.22,38.31Z"/><path class="cls-1" d="m483.91,774.55c-50.55,0-101.11,0-151.66,0-14.81,0-22.21-7.25-22.22-21.9-.02-88.57-.02-177.15,0-265.72,0-14.74,7.25-21.88,22.16-21.88,101.3-.01,202.6-.01,303.89,0,14.7,0,22.03,7.38,22.03,22.1.01,88.38.01,176.77,0,265.15,0,14.9-7.47,22.25-22.55,22.25-50.55,0-101.11,0-151.66,0Zm135.12-39.01v-231.46h-269.86v231.73c12.04,0,23.61-.13,35.18.08,3.67.07,5.11-.98,6.07-4.74,4.71-18.49,14.22-34.27,28.28-47.21,3.46-3.19,7.24-6.04,10.88-9.06-32.46-33.58-28.25-82.13-.23-110.01,28.34-28.21,73.52-30.33,104.18-4.68,15.73,13.16,24.97,30.07,27.28,50.34,2.82,24.81-5.13,46.28-22.53,64.5,21.43,15.15,34.73,35.29,40.56,60.52h40.2Zm-96.46-115.83c-.02-21.47-17.42-38.85-38.73-38.69-21.37.16-38.75,17.78-38.51,39.03.24,21.25,17.37,38.25,38.57,38.27,21.59.03,38.68-17.05,38.67-38.62Zm15.4,115.84c-5.44-22.3-31.88-39.93-57.22-38.38-23.42,1.43-48.46,20.5-50.33,38.38h107.55Z"/><path class="cls-1" d="m271.36,97.1c50.17,0,100.35,0,150.52,0,16.21,0,23.38,7.09,23.39,23.2.02,87.82.01,175.63,0,263.45,0,16.11-7.17,23.19-23.39,23.19-100.35,0-200.7,0-301.05,0-16.51,0-23.77-7.17-23.77-23.47,0-87.63,0-175.25,0-262.88,0-16.31,7.27-23.49,23.77-23.49,50.17,0,100.35,0,150.52,0Zm134.85,270.85v-135.25c-15.27,0-30.08-.18-44.88.16-2.8.07-6.15,1.6-8.23,3.55-8.45,7.93-16.47,16.31-24.7,24.47-3.45,3.42-7.04,6.71-11.71,11.15,8.98,8.86,17.16,16.93,24.79,24.45-8.69,8.7-17.51,17.55-27.15,27.2-33.6-33.66-67.5-67.63-101.41-101.6-.32.19-.69.33-.95.59-24.6,24.58-49.23,49.13-73.69,73.84-1.49,1.51-2.36,4.29-2.38,6.49-.18,19.95-.11,39.91-.09,59.86,0,1.64.22,3.28.36,5.1h270.05ZM136.21,136.01v106.53c.57.43,1.15.86,1.72,1.3,1.13-1.76,1.99-3.78,3.43-5.23,18.88-19.02,37.8-38.01,56.8-56.91,9.63-9.58,20.45-9.57,30.03-.05,16.04,15.95,32.03,31.95,47.97,47.99,4.67,4.69,9.12,9.6,15.14,15.96,1.66-2.64,2.51-4.71,3.96-6.18,12.83-12.98,25.79-25.82,38.64-38.78,4.54-4.58,9.86-6.9,16.33-6.71,4.18.12,8.36.02,12.54.02,14.41,0,28.82,0,43.47,0v-57.95H136.21Z"/><path class="cls-1" d="m503.61,174.2v-38.04h134.84v38.04h-134.84Z"/><path class="cls-1" d="m503.77,232.92h134.64v38.07h-134.64v-38.07Z"/><path class="cls-1" d="m638.33,367.97h-134.67v-38.01h134.67v38.01Z"/><path class="cls-1" d="m251.77,600.67v37.87H116.72v-37.87h135.05Z"/><path class="cls-1" d="m251.77,697.52v37.89H116.74v-37.89h135.03Z"/><path class="cls-1" d="m116.63,541.74v-37.75h135.1v37.75H116.63Z"/></g></svg>