<?xml version="1.0" encoding="UTF-8"?><svg id="Layer_1" xmlns="http://www.w3.org/2000/svg" viewBox="0 0 929.59 789.91"><defs><style>.cls-1{fill:#fff;stroke-width:0px;}</style></defs><path class="cls-1" d="m34.71,789.91L.03,771.28l-.02-217.87C0,407.5-.02,261.6.07,115.69.12,32.52,32.78.1,116.52.07c232.9-.09,465.8-.11,698.71.03,80.82.05,112.61,31.09,113.36,110.69,1.32,139.01,1.34,283.28.05,428.83-.74,83.16-33.81,115.57-117.95,115.59l-128.72.08c-157.74.13-320.85.26-481.3-.69-23.22-.02-38.13,6.1-53.27,22.28-23.46,25.07-48.24,49.41-72.2,72.96-10.13,9.96-20.27,19.92-30.33,29.96l-10.16,10.12ZM460.19,38.63c-114.55,0-229.11.03-343.66.08-62.52.02-77.79,15.14-77.83,77.01-.09,145.89-.08,291.79-.06,437.69l.02,178.17,9.46-9.3c23.67-23.26,48.15-47.33,71.07-71.81,22.32-23.84,47.27-34.51,80.76-34.51h.94c160.31.95,323.35.83,481.04.69l128.74-.08c62.47-.02,78.79-15.91,79.33-77.31,1.29-145.31,1.28-289.35-.05-428.11-.56-58.85-14.53-72.39-74.76-72.42-118.33-.07-236.67-.1-355-.1Zm134.7,504.7c-3.98,0-7.86-.24-11.54-.48-3.04-.19-6.08-.39-9.05-.39l-284.7.02-2.17-16.84c-9.53-73.9,20.83-135.33,79.23-160.33,64.43-27.59,130.07-27.68,195.03-.27,63.42,26.75,78.68,85.54,84.9,133.77,2.48,19.19-18.75,36.88-31.33,41.4-6.89,2.48-13.79,3.14-20.37,3.14Zm-20.59-39.5c3.77,0,7.61.23,11.47.47,6.35.4,12.9.81,16.45-.47,1.32-.57,3.84-2.7,5.46-4.5-7.8-55.05-25.65-83.78-61-98.7-54.93-23.17-110.39-23.11-164.81.2-37.57,16.08-58.74,54.75-57.45,103.02l249.87-.02Zm-109.83-178.79c-1.06,0-2.11-.02-3.18-.05-59.84-2.01-103.81-50.17-102.28-112.02,1.43-57.75,48.17-104.05,104.57-104.05.6,0,1.2,0,1.81.02,28.35.5,55.14,12.38,75.44,33.44,20.28,21.05,31.15,48.23,30.61,76.53h0c-.55,28.23-13.14,56.06-34.53,76.34-20.08,19.04-46.32,29.8-72.44,29.8Zm-.88-177.49c-35.56,0-65.05,29.53-65.96,66.37-.99,40.03,26.94,71.18,64.96,72.46,16.77.64,34.29-6.41,47.73-19.17,13.94-13.22,22.13-31.1,22.48-49.06.35-17.71-6.87-35.56-19.79-48.97-12.94-13.43-30.55-21.31-48.3-21.62-.38,0-.75,0-1.12,0Z"/></svg>