<?xml version="1.0" encoding="UTF-8"?><svg id="Layer_1" xmlns="http://www.w3.org/2000/svg" viewBox="0 0 913.53 886.39"><defs><style>.cls-1{fill:#89edec;stroke-width:0px;}</style></defs><g id="nyt4QW.tif"><path class="cls-1" d="m699.03,256.05c1.84-.73,6.14-1.68,9.59-3.93,40.92-26.61,153.87-103.97,194.63-130.84,10.52-6.94,13.13-17.85,7.06-26.89-6.1-9.09-16.87-10.63-27.59-3.71-13.15,8.49-98.3,67.78-111.39,76.38-27.97,18.37-55.99,36.68-83.88,55.16-8.22,5.44-11.27,13.41-8.36,21.4,2.92,8.02,8.82,12.32,19.94,12.43Zm-112.01-103.81c-.36,11.76,6.49,19.85,16.49,20.47,10.65.65,18.31-6.08,19.53-17.61,4.69-44.57,9.29-89.15,13.85-133.74,1.16-11.38-5.31-20.02-15.56-21.21-10.95-1.27-19.17,5.66-20.52,17.44-1.01,8.84-1.89,17.7-2.79,26.56-3.7,36.34-7.4,72.69-11,108.09Z"/><path class="cls-1" d="m337.02,886.39c-8.03-2.86-16.39-5.04-24.01-8.74-13.81-6.7-24.76-16.96-33.41-29.72-41.08-60.62-45.65-64.93-86.78-125.51-2.05-3.02-4.19-5.99-6.59-9.41-18.76,11.54-38.45,18.61-60.22,19.27C56.55,734.37-1.11,678.01.02,608.47c.66-40.75,18.54-72.74,51.81-95.93,24.73-17.24,50.05-33.63,74.77-50.88,4.77-3.33,9.16-8.29,11.74-13.48,47.28-95.28,94.25-190.72,141.28-286.12,11.33-22.99,30.5-34.89,55.31-37.8,31.31-3.67,59.56,6.7,86.43,21.21,49,26.47,88.7,64.01,123.66,106.7,51.01,62.28,90.89,130.73,111.87,209.09,8.89,33.23,13.68,66.96,6.72,101.32-4.27,21.09-13.23,39.59-30.48,53.31-10.65,8.47-22.67,13.25-36.32,14.32-87.13,6.87-174.25,13.85-261.36,20.83-2.65.21-5.27.81-9.19,1.43,2.51,3.79,4.32,6.56,6.17,9.3,36.24,53.49,35.86,50.75,72.19,104.18,11.13,16.36,17.15,34.01,14.38,53.93-4.83,34.76-26.14,57.48-60.32,64.7-1.73.37-3.36,1.2-5.04,1.82h-16.63Zm-36.99-658.68c1.21,10.86,2.07,21.28,3.61,31.61,1.14,7.58,2.76,15.14,4.86,22.5,31.05,108.6,91.45,197.96,178.26,269.56,24.07,19.85,50.85,35.49,81.96,42.51,16.44,3.71,29.7-1.59,41.27-12.52,9.5-8.98,14.29-20.63,16.72-33.25,4.51-23.39,2.25-46.61-2.74-69.59-10.3-47.47-31.31-90.42-56.57-131.46-33.95-55.16-73.97-105.16-125.78-144.79-23.33-17.85-48.16-33.11-77.22-39.98-33.12-7.84-56.52,7.52-62.18,41.03-1.38,8.15-1.53,16.51-2.22,24.4Zm-32.79,41.78c-.53.75-1.17,1.42-1.56,2.22-31.16,63.45-62.37,126.88-93.18,190.49-1.41,2.91-.43,8.39,1.51,11.28,31.36,46.75,63.12,93.23,94.55,139.92,3.17,4.7,6.4,6.31,12.01,5.85,55.81-4.58,111.64-8.89,167.46-13.33,14.84-1.18,29.67-2.53,44.93-3.83-115.36-84.26-190.57-194.46-225.71-332.6Zm-123.51,224.67c-24.83,16.94-49.49,33.05-73.39,50.22-37.22,26.75-44.65,74.75-18.32,113.69,26.6,39.33,74.21,50.31,113.07,25.39,22.51-14.44,44.34-29.95,66.45-45,2.23-1.52,4.35-3.2,6.79-5.01-31.58-46.5-62.83-92.51-94.6-139.29Zm72.81,198.62c6.86,10.11,13.22,19.49,19.58,28.87,37.3,54.95,37.98,53.66,75.33,108.58,10.57,15.55,26,22.18,41.88,18.4,27.63-6.58,38.53-36.66,21.89-61.3-40.61-60.14-44.82-63.88-85.55-123.94-5.74-8.47-13.92-10.58-22.47-4.96-16.68,10.98-33.08,22.38-50.66,34.35Z"/><path class="cls-1" d="m892.69,388.47c-7.48,13.46-12.44,15.92-27.65,13.22-46.32-8.21-92.63-16.46-138.92-24.8-10.84-1.95-17.32-8.1-17.81-17.06-.46-8.55,3.34-15.25,11.47-18.07,4.11-1.42,9.16-1.39,13.53-.63,47.55,8.31,95.11,16.56,142.47,25.83,6.2,1.21,11.3,8.04,16.9,12.27v9.24Z"/><path class="cls-1" d="m699.03,256.05c-11.12-.11-17.02-4.41-19.94-12.43-2.91-7.99.14-15.96,8.36-21.4,27.9-18.48,55.91-36.78,83.88-55.16,13.09-8.6,98.23-67.89,111.39-76.38,10.72-6.92,21.49-5.38,27.59,3.71,6.07,9.03,3.46,19.95-7.06,26.89-40.76,26.87-153.7,104.22-194.63,130.84-3.46,2.25-7.75,3.2-9.59,3.93Z"/><path class="cls-1" d="m587.02,152.24c3.6-35.41,7.29-71.75,11-108.09.9-8.86,1.78-17.72,2.79-26.56,1.35-11.78,9.57-18.71,20.52-17.44,10.25,1.19,16.72,9.83,15.56,21.21-4.55,44.59-9.16,89.17-13.85,133.74-1.21,11.54-8.87,18.26-19.53,17.61-10-.61-16.85-8.71-16.49-20.47Z"/><path class="cls-1" d="m423.54,301.57c51.57.17,88.67,26.29,102.62,66.15,13.82,39.46,1.18,83.32-31.76,109.55-3.55,2.82-7.54,5.6-11.78,6.93-8.36,2.62-17.1-1.76-20.89-9.44-3.89-7.9-1.93-16.85,6.04-22.88,14.38-10.9,23.92-24.6,26.29-42.72,3.24-24.77-5.22-45.04-25.39-59.46-20.53-14.67-42.73-15.55-65.35-4.43-2.48,1.22-4.73,2.88-7.2,4.12-9.19,4.62-19.09,2.09-24.3-6.11-5.29-8.34-3-19.14,5.75-25.05,16.49-11.13,34.77-16.62,45.97-16.67Z"/></g><circle class="cls-1" cx="429.79" cy="405.9" r="24.95"/></svg>